<mxfile host="app.diagrams.net" modified="2023-07-12T06:53:42.752Z" agent="Mozilla/5.0 (Macintosh; Intel Mac OS X 10_15_7) AppleWebKit/537.36 (KHTML, like Gecko) Chrome/114.0.0.0 Safari/537.36" etag="W3iRXSGaQuQSh5mF7f5h" version="21.2.4" type="github">
  <diagram name="Page-1" id="hqJCpvZomStMuO4X5X9Y">
    <mxGraphModel dx="2069" dy="1918" grid="1" gridSize="10" guides="1" tooltips="1" connect="1" arrows="1" fold="1" page="1" pageScale="1" pageWidth="827" pageHeight="1169" math="0" shadow="0">
      <root>
        <mxCell id="0" />
        <mxCell id="1" parent="0" />
        <mxCell id="btAeQMdCh_CJCEw0MgIb-1" value="prexo_smartpickup_reassess_hive_fact" style="rounded=0;whiteSpace=wrap;html=1;fillColor=#dae8fc;strokeColor=#6c8ebf;" parent="1" vertex="1">
          <mxGeometry x="-310" y="420" width="300" height="40" as="geometry" />
        </mxCell>
        <mxCell id="btAeQMdCh_CJCEw0MgIb-2" value="Fact" style="rounded=0;whiteSpace=wrap;html=1;fillColor=#dae8fc;strokeColor=#6c8ebf;" parent="1" vertex="1">
          <mxGeometry x="-150" y="-350" width="110" height="30" as="geometry" />
        </mxCell>
        <mxCell id="btAeQMdCh_CJCEw0MgIb-3" value="Dimension" style="rounded=0;whiteSpace=wrap;html=1;fillColor=#e1d5e7;strokeColor=#9673a6;" parent="1" vertex="1">
          <mxGeometry x="34" y="-350" width="110" height="30" as="geometry" />
        </mxCell>
        <mxCell id="btAeQMdCh_CJCEw0MgIb-4" value="Snapshot" style="rounded=0;whiteSpace=wrap;html=1;fillColor=#d5e8d4;strokeColor=#82b366;" parent="1" vertex="1">
          <mxGeometry x="210" y="-350" width="110" height="30" as="geometry" />
        </mxCell>
        <mxCell id="btAeQMdCh_CJCEw0MgIb-5" value="Journal" style="rounded=0;whiteSpace=wrap;html=1;fillColor=#fff2cc;strokeColor=#d6b656;" parent="1" vertex="1">
          <mxGeometry x="390" y="-350" width="110" height="30" as="geometry" />
        </mxCell>
        <mxCell id="btAeQMdCh_CJCEw0MgIb-6" value="" style="swimlane;startSize=0;fontSize=12;" parent="1" vertex="1">
          <mxGeometry x="-170" y="-370" width="850" height="70" as="geometry">
            <mxRectangle x="-170" y="-370" width="50" height="40" as="alternateBounds" />
          </mxGeometry>
        </mxCell>
        <mxCell id="btAeQMdCh_CJCEw0MgIb-24" value="common" style="rounded=0;whiteSpace=wrap;html=1;fillColor=#b0e3e6;strokeColor=#0e8088;" parent="btAeQMdCh_CJCEw0MgIb-6" vertex="1">
          <mxGeometry x="710" y="20" width="110" height="30" as="geometry" />
        </mxCell>
        <mxCell id="btAeQMdCh_CJCEw0MgIb-18" style="edgeStyle=orthogonalEdgeStyle;rounded=0;orthogonalLoop=1;jettySize=auto;html=1;entryX=1;entryY=0.5;entryDx=0;entryDy=0;" parent="1" source="btAeQMdCh_CJCEw0MgIb-7" target="btAeQMdCh_CJCEw0MgIb-1" edge="1">
          <mxGeometry relative="1" as="geometry">
            <Array as="points">
              <mxPoint x="140" y="440" />
              <mxPoint x="140" y="440" />
            </Array>
          </mxGeometry>
        </mxCell>
        <mxCell id="btAeQMdCh_CJCEw0MgIb-7" value="shipment_hive_90_fact" style="rounded=0;whiteSpace=wrap;html=1;fillColor=#dae8fc;strokeColor=#6c8ebf;" parent="1" vertex="1">
          <mxGeometry x="207" y="425" width="240" height="30" as="geometry" />
        </mxCell>
        <mxCell id="btAeQMdCh_CJCEw0MgIb-29" style="edgeStyle=orthogonalEdgeStyle;rounded=0;orthogonalLoop=1;jettySize=auto;html=1;" parent="1" source="btAeQMdCh_CJCEw0MgIb-8" edge="1">
          <mxGeometry relative="1" as="geometry">
            <mxPoint x="50" y="440" as="targetPoint" />
          </mxGeometry>
        </mxCell>
        <mxCell id="btAeQMdCh_CJCEw0MgIb-8" value="&lt;p style=&quot;margin: 0px; font-variant-numeric: normal; font-variant-east-asian: normal; font-variant-alternates: normal; font-kerning: auto; font-optical-sizing: auto; font-feature-settings: normal; font-variation-settings: normal; font-stretch: normal; font-size: 13px; line-height: normal; font-family: &amp;quot;Helvetica Neue&amp;quot;; text-align: start;&quot; class=&quot;p1&quot;&gt;smart_pickup_l2_hive_fact&lt;/p&gt;" style="rounded=0;whiteSpace=wrap;html=1;fillColor=#e1d5e7;strokeColor=#9673a6;" parent="1" vertex="1">
          <mxGeometry x="207.5" y="120" width="240" height="30" as="geometry" />
        </mxCell>
        <mxCell id="btAeQMdCh_CJCEw0MgIb-9" value="cl_auto_beat_planner_fact" style="rounded=0;whiteSpace=wrap;html=1;fillColor=#dae8fc;strokeColor=#6c8ebf;" parent="1" vertex="1">
          <mxGeometry x="206" y="240" width="240" height="30" as="geometry" />
        </mxCell>
        <mxCell id="btAeQMdCh_CJCEw0MgIb-10" value="date_dim_fact" style="rounded=0;whiteSpace=wrap;html=1;fillColor=#dae8fc;strokeColor=#6c8ebf;" parent="1" vertex="1">
          <mxGeometry x="206" y="180" width="240" height="30" as="geometry" />
        </mxCell>
        <mxCell id="btAeQMdCh_CJCEw0MgIb-11" value="ekart_mdm_facility_mapper_dim" style="rounded=0;whiteSpace=wrap;html=1;fillColor=#e1d5e7;strokeColor=#9673a6;" parent="1" vertex="1">
          <mxGeometry x="207" y="300" width="240" height="30" as="geometry" />
        </mxCell>
        <mxCell id="btAeQMdCh_CJCEw0MgIb-12" value="shipment_5" style="rounded=0;whiteSpace=wrap;html=1;fillColor=#fff2cc;strokeColor=#d6b656;" parent="1" vertex="1">
          <mxGeometry x="207" y="360" width="240" height="30" as="geometry" />
        </mxCell>
        <mxCell id="btAeQMdCh_CJCEw0MgIb-13" value="tasklist_shipment_attempt_l3_agg_fact" style="rounded=0;whiteSpace=wrap;html=1;fillColor=#dae8fc;strokeColor=#6c8ebf;" parent="1" vertex="1">
          <mxGeometry x="206" y="570" width="241" height="30" as="geometry" />
        </mxCell>
        <mxCell id="btAeQMdCh_CJCEw0MgIb-14" value="geotag2_hive_fact" style="rounded=0;whiteSpace=wrap;html=1;fillColor=#dae8fc;strokeColor=#6c8ebf;" parent="1" vertex="1">
          <mxGeometry x="206" y="650" width="240" height="30" as="geometry" />
        </mxCell>
        <mxCell id="btAeQMdCh_CJCEw0MgIb-15" value="address_hive_dim" style="rounded=0;whiteSpace=wrap;html=1;fillColor=#e1d5e7;strokeColor=#9673a6;" parent="1" vertex="1">
          <mxGeometry x="207" y="500" width="240" height="30" as="geometry" />
        </mxCell>
        <mxCell id="btAeQMdCh_CJCEw0MgIb-16" value="geotag_hive_fact" style="rounded=0;whiteSpace=wrap;html=1;fillColor=#dae8fc;strokeColor=#6c8ebf;" parent="1" vertex="1">
          <mxGeometry x="206" y="730" width="240" height="30" as="geometry" />
        </mxCell>
        <mxCell id="btAeQMdCh_CJCEw0MgIb-87" style="edgeStyle=orthogonalEdgeStyle;rounded=0;orthogonalLoop=1;jettySize=auto;html=1;" parent="1" source="btAeQMdCh_CJCEw0MgIb-17" edge="1">
          <mxGeometry relative="1" as="geometry">
            <mxPoint x="50" y="440" as="targetPoint" />
          </mxGeometry>
        </mxCell>
        <mxCell id="btAeQMdCh_CJCEw0MgIb-17" value="fulfillment_breach_rto_fake_impact_fact" style="rounded=0;whiteSpace=wrap;html=1;fillColor=#dae8fc;strokeColor=#6c8ebf;" parent="1" vertex="1">
          <mxGeometry x="206" y="800" width="240" height="30" as="geometry" />
        </mxCell>
        <mxCell id="btAeQMdCh_CJCEw0MgIb-25" style="edgeStyle=orthogonalEdgeStyle;rounded=0;orthogonalLoop=1;jettySize=auto;html=1;entryX=1;entryY=0.5;entryDx=0;entryDy=0;" parent="1" source="btAeQMdCh_CJCEw0MgIb-20" target="btAeQMdCh_CJCEw0MgIb-10" edge="1">
          <mxGeometry relative="1" as="geometry" />
        </mxCell>
        <mxCell id="btAeQMdCh_CJCEw0MgIb-20" value="date_dim_cal" style="rounded=0;whiteSpace=wrap;html=1;fillColor=#b0e3e6;strokeColor=#0e8088;" parent="1" vertex="1">
          <mxGeometry x="530" y="80" width="240" height="30" as="geometry" />
        </mxCell>
        <mxCell id="btAeQMdCh_CJCEw0MgIb-23" value="Journal" style="rounded=0;whiteSpace=wrap;html=1;fillColor=#fff2cc;strokeColor=#d6b656;" parent="1" vertex="1">
          <mxGeometry x="390" y="-350" width="110" height="30" as="geometry" />
        </mxCell>
        <mxCell id="btAeQMdCh_CJCEw0MgIb-27" value="" style="line;strokeWidth=2;html=1;" parent="1" vertex="1">
          <mxGeometry x="50" y="255" width="156" height="120" as="geometry" />
        </mxCell>
        <mxCell id="btAeQMdCh_CJCEw0MgIb-30" value="" style="line;strokeWidth=2;html=1;" parent="1" vertex="1">
          <mxGeometry x="50" y="195" width="156" height="120" as="geometry" />
        </mxCell>
        <mxCell id="btAeQMdCh_CJCEw0MgIb-31" value="" style="line;strokeWidth=2;html=1;" parent="1" vertex="1">
          <mxGeometry x="50" y="135" width="156" height="120" as="geometry" />
        </mxCell>
        <mxCell id="btAeQMdCh_CJCEw0MgIb-33" value="" style="line;strokeWidth=2;html=1;" parent="1" vertex="1">
          <mxGeometry x="51" y="315" width="156" height="120" as="geometry" />
        </mxCell>
        <mxCell id="btAeQMdCh_CJCEw0MgIb-65" value="" style="line;strokeWidth=2;html=1;" parent="1" vertex="1">
          <mxGeometry x="50" y="455" width="156" height="120" as="geometry" />
        </mxCell>
        <mxCell id="btAeQMdCh_CJCEw0MgIb-66" value="" style="line;strokeWidth=2;html=1;" parent="1" vertex="1">
          <mxGeometry x="51" y="525" width="156" height="120" as="geometry" />
        </mxCell>
        <mxCell id="btAeQMdCh_CJCEw0MgIb-67" value="" style="line;strokeWidth=2;html=1;" parent="1" vertex="1">
          <mxGeometry x="50" y="605" width="156" height="120" as="geometry" />
        </mxCell>
        <mxCell id="btAeQMdCh_CJCEw0MgIb-68" value="Suspended" style="text;html=1;strokeColor=#b85450;fillColor=#f8cecc;align=center;verticalAlign=middle;whiteSpace=wrap;rounded=0;fontSize=12;" parent="1" vertex="1">
          <mxGeometry x="446" y="247.5" width="114" height="15" as="geometry" />
        </mxCell>
        <mxCell id="btAeQMdCh_CJCEw0MgIb-143" style="edgeStyle=orthogonalEdgeStyle;rounded=0;orthogonalLoop=1;jettySize=auto;html=1;" parent="1" source="btAeQMdCh_CJCEw0MgIb-69" edge="1">
          <mxGeometry relative="1" as="geometry">
            <mxPoint x="610" y="610" as="targetPoint" />
          </mxGeometry>
        </mxCell>
        <mxCell id="btAeQMdCh_CJCEw0MgIb-69" value="geocodeevent_6" style="rounded=0;whiteSpace=wrap;html=1;fillColor=#fff2cc;strokeColor=#d6b656;" parent="1" vertex="1">
          <mxGeometry x="770" y="645" width="240" height="30" as="geometry" />
        </mxCell>
        <mxCell id="btAeQMdCh_CJCEw0MgIb-71" style="edgeStyle=orthogonalEdgeStyle;rounded=0;orthogonalLoop=1;jettySize=auto;html=1;" parent="1" source="btAeQMdCh_CJCEw0MgIb-70" target="btAeQMdCh_CJCEw0MgIb-14" edge="1">
          <mxGeometry relative="1" as="geometry" />
        </mxCell>
        <mxCell id="btAeQMdCh_CJCEw0MgIb-70" value="geotag_5" style="rounded=0;whiteSpace=wrap;html=1;fillColor=#fff2cc;strokeColor=#d6b656;" parent="1" vertex="1">
          <mxGeometry x="770" y="595" width="240" height="30" as="geometry" />
        </mxCell>
        <mxCell id="btAeQMdCh_CJCEw0MgIb-78" value="oms_tpl_returns_l1_fact" style="rounded=0;whiteSpace=wrap;html=1;fillColor=#dae8fc;strokeColor=#6c8ebf;" parent="1" vertex="1">
          <mxGeometry x="570" y="990" width="240" height="30" as="geometry" />
        </mxCell>
        <mxCell id="btAeQMdCh_CJCEw0MgIb-89" style="edgeStyle=orthogonalEdgeStyle;rounded=0;orthogonalLoop=1;jettySize=auto;html=1;entryX=1;entryY=0.5;entryDx=0;entryDy=0;" parent="1" source="btAeQMdCh_CJCEw0MgIb-79" target="btAeQMdCh_CJCEw0MgIb-17" edge="1">
          <mxGeometry relative="1" as="geometry" />
        </mxCell>
        <mxCell id="btAeQMdCh_CJCEw0MgIb-79" value="fulfillment_breach_funnel_intermediate_fact" style="rounded=0;whiteSpace=wrap;html=1;fillColor=#dae8fc;strokeColor=#6c8ebf;" parent="1" vertex="1">
          <mxGeometry x="570" y="800" width="240" height="30" as="geometry" />
        </mxCell>
        <mxCell id="btAeQMdCh_CJCEw0MgIb-80" value="product_categorization_hive_dim" style="rounded=0;whiteSpace=wrap;html=1;fillColor=#e1d5e7;strokeColor=#9673a6;" parent="1" vertex="1">
          <mxGeometry x="570" y="860" width="240" height="30" as="geometry" />
        </mxCell>
        <mxCell id="btAeQMdCh_CJCEw0MgIb-81" value="first_mile_breach_90_testv2_fact" style="rounded=0;whiteSpace=wrap;html=1;fillColor=#dae8fc;strokeColor=#6c8ebf;" parent="1" vertex="1">
          <mxGeometry x="570" y="920" width="240" height="30" as="geometry" />
        </mxCell>
        <mxCell id="btAeQMdCh_CJCEw0MgIb-82" value="tasklist_shipment_attempt_l3_agg_fact" style="rounded=0;whiteSpace=wrap;html=1;fillColor=#dae8fc;strokeColor=#6c8ebf;" parent="1" vertex="1">
          <mxGeometry x="569" y="1135" width="241" height="30" as="geometry" />
        </mxCell>
        <mxCell id="btAeQMdCh_CJCEw0MgIb-84" value="shipment_rfr_adherence_l1_fact" style="rounded=0;whiteSpace=wrap;html=1;fillColor=#dae8fc;strokeColor=#6c8ebf;" parent="1" vertex="1">
          <mxGeometry x="570" y="1065" width="240" height="30" as="geometry" />
        </mxCell>
        <mxCell id="btAeQMdCh_CJCEw0MgIb-91" style="edgeStyle=orthogonalEdgeStyle;rounded=0;orthogonalLoop=1;jettySize=auto;html=1;entryX=0.411;entryY=1.208;entryDx=0;entryDy=0;entryPerimeter=0;" parent="1" source="btAeQMdCh_CJCEw0MgIb-85" target="btAeQMdCh_CJCEw0MgIb-17" edge="1">
          <mxGeometry relative="1" as="geometry" />
        </mxCell>
        <mxCell id="btAeQMdCh_CJCEw0MgIb-85" value="oms_ekl_returns_l1_fact" style="rounded=0;whiteSpace=wrap;html=1;fillColor=#dae8fc;strokeColor=#6c8ebf;" parent="1" vertex="1">
          <mxGeometry x="569" y="1200" width="240" height="30" as="geometry" />
        </mxCell>
        <mxCell id="btAeQMdCh_CJCEw0MgIb-88" value="" style="line;strokeWidth=2;html=1;" parent="1" vertex="1">
          <mxGeometry x="50" y="685" width="156" height="120" as="geometry" />
        </mxCell>
        <mxCell id="btAeQMdCh_CJCEw0MgIb-92" value="" style="line;strokeWidth=2;html=1;" parent="1" vertex="1">
          <mxGeometry x="304" y="1090" width="265" height="120" as="geometry" />
        </mxCell>
        <mxCell id="btAeQMdCh_CJCEw0MgIb-94" value="" style="line;strokeWidth=2;html=1;" parent="1" vertex="1">
          <mxGeometry x="304" y="1020" width="265" height="120" as="geometry" />
        </mxCell>
        <mxCell id="btAeQMdCh_CJCEw0MgIb-95" value="" style="line;strokeWidth=2;html=1;" parent="1" vertex="1">
          <mxGeometry x="305" y="945" width="265" height="120" as="geometry" />
        </mxCell>
        <mxCell id="btAeQMdCh_CJCEw0MgIb-96" value="" style="line;strokeWidth=2;html=1;" parent="1" vertex="1">
          <mxGeometry x="305" y="875" width="265" height="120" as="geometry" />
        </mxCell>
        <mxCell id="btAeQMdCh_CJCEw0MgIb-97" value="" style="line;strokeWidth=2;html=1;" parent="1" vertex="1">
          <mxGeometry x="305" y="815" width="265" height="120" as="geometry" />
        </mxCell>
        <mxCell id="btAeQMdCh_CJCEw0MgIb-98" value="Duplicate" style="text;html=1;strokeColor=#b85450;fillColor=#f8cecc;align=center;verticalAlign=middle;whiteSpace=wrap;rounded=0;fontSize=12;" parent="1" vertex="1">
          <mxGeometry x="810" y="1142.5" width="80" height="15" as="geometry" />
        </mxCell>
        <mxCell id="btAeQMdCh_CJCEw0MgIb-99" value="shipment_5" style="rounded=0;whiteSpace=wrap;html=1;fillColor=#fff2cc;strokeColor=#d6b656;" parent="1" vertex="1">
          <mxGeometry x="1211" y="1195" width="240" height="30" as="geometry" />
        </mxCell>
        <mxCell id="btAeQMdCh_CJCEw0MgIb-105" style="edgeStyle=orthogonalEdgeStyle;rounded=0;orthogonalLoop=1;jettySize=auto;html=1;entryX=1;entryY=0.5;entryDx=0;entryDy=0;" parent="1" source="btAeQMdCh_CJCEw0MgIb-100" target="btAeQMdCh_CJCEw0MgIb-84" edge="1">
          <mxGeometry relative="1" as="geometry" />
        </mxCell>
        <mxCell id="btAeQMdCh_CJCEw0MgIb-100" value="tasklist_shipment_attempt_l3_agg_fact" style="rounded=0;whiteSpace=wrap;html=1;fillColor=#dae8fc;strokeColor=#6c8ebf;" parent="1" vertex="1">
          <mxGeometry x="1211" y="1065" width="240" height="30" as="geometry" />
        </mxCell>
        <mxCell id="btAeQMdCh_CJCEw0MgIb-101" value="shipment_rfr_events_l0_fact" style="rounded=0;whiteSpace=wrap;html=1;fillColor=#dae8fc;strokeColor=#6c8ebf;" parent="1" vertex="1">
          <mxGeometry x="1211" y="1125" width="240" height="30" as="geometry" />
        </mxCell>
        <mxCell id="btAeQMdCh_CJCEw0MgIb-103" value="shipment_hive_90_fact" style="rounded=0;whiteSpace=wrap;html=1;fillColor=#dae8fc;strokeColor=#6c8ebf;" parent="1" vertex="1">
          <mxGeometry x="1211" y="1270" width="240" height="30" as="geometry" />
        </mxCell>
        <mxCell id="btAeQMdCh_CJCEw0MgIb-107" style="edgeStyle=orthogonalEdgeStyle;rounded=0;orthogonalLoop=1;jettySize=auto;html=1;" parent="1" source="btAeQMdCh_CJCEw0MgIb-104" edge="1">
          <mxGeometry relative="1" as="geometry">
            <mxPoint x="1000" y="1080" as="targetPoint" />
          </mxGeometry>
        </mxCell>
        <mxCell id="btAeQMdCh_CJCEw0MgIb-104" value="ekart_mdm_facility_mapper_dim" style="rounded=0;whiteSpace=wrap;html=1;fillColor=#e1d5e7;strokeColor=#9673a6;" parent="1" vertex="1">
          <mxGeometry x="1210" y="1345" width="240" height="30" as="geometry" />
        </mxCell>
        <mxCell id="btAeQMdCh_CJCEw0MgIb-110" value="" style="line;strokeWidth=2;html=1;" parent="1" vertex="1">
          <mxGeometry x="1000" y="1225" width="210" height="120" as="geometry" />
        </mxCell>
        <mxCell id="btAeQMdCh_CJCEw0MgIb-111" value="" style="line;strokeWidth=2;html=1;" parent="1" vertex="1">
          <mxGeometry x="1000" y="1150" width="210" height="120" as="geometry" />
        </mxCell>
        <mxCell id="btAeQMdCh_CJCEw0MgIb-112" value="" style="line;strokeWidth=2;html=1;" parent="1" vertex="1">
          <mxGeometry x="1001" y="1080" width="210" height="120" as="geometry" />
        </mxCell>
        <mxCell id="btAeQMdCh_CJCEw0MgIb-114" value="Duplicate" style="text;html=1;strokeColor=#b85450;fillColor=#f8cecc;align=center;verticalAlign=middle;whiteSpace=wrap;rounded=0;fontSize=12;" parent="1" vertex="1">
          <mxGeometry x="1451" y="1202.5" width="80" height="15" as="geometry" />
        </mxCell>
        <mxCell id="btAeQMdCh_CJCEw0MgIb-115" value="Duplicate" style="text;html=1;strokeColor=#b85450;fillColor=#f8cecc;align=center;verticalAlign=middle;whiteSpace=wrap;rounded=0;fontSize=12;" parent="1" vertex="1">
          <mxGeometry x="1450" y="1277.5" width="80" height="15" as="geometry" />
        </mxCell>
        <mxCell id="btAeQMdCh_CJCEw0MgIb-126" value="Duplicate" style="text;html=1;strokeColor=#b85450;fillColor=#f8cecc;align=center;verticalAlign=middle;whiteSpace=wrap;rounded=0;fontSize=12;" parent="1" vertex="1">
          <mxGeometry x="1451" y="1352.5" width="80" height="15" as="geometry" />
        </mxCell>
        <mxCell id="btAeQMdCh_CJCEw0MgIb-128" style="edgeStyle=orthogonalEdgeStyle;rounded=0;orthogonalLoop=1;jettySize=auto;html=1;entryX=1;entryY=0.5;entryDx=0;entryDy=0;" parent="1" source="btAeQMdCh_CJCEw0MgIb-127" target="btAeQMdCh_CJCEw0MgIb-101" edge="1">
          <mxGeometry relative="1" as="geometry" />
        </mxCell>
        <mxCell id="btAeQMdCh_CJCEw0MgIb-127" value="shipment_5" style="rounded=0;whiteSpace=wrap;html=1;fillColor=#fff2cc;strokeColor=#d6b656;" parent="1" vertex="1">
          <mxGeometry x="1654" y="1125" width="240" height="30" as="geometry" />
        </mxCell>
        <mxCell id="btAeQMdCh_CJCEw0MgIb-129" value="Duplicate" style="text;html=1;strokeColor=#b85450;fillColor=#f8cecc;align=center;verticalAlign=middle;whiteSpace=wrap;rounded=0;fontSize=12;" parent="1" vertex="1">
          <mxGeometry x="1894" y="1132.5" width="80" height="15" as="geometry" />
        </mxCell>
        <mxCell id="btAeQMdCh_CJCEw0MgIb-133" style="edgeStyle=orthogonalEdgeStyle;rounded=0;orthogonalLoop=1;jettySize=auto;html=1;entryX=1;entryY=0.5;entryDx=0;entryDy=0;" parent="1" source="btAeQMdCh_CJCEw0MgIb-132" target="btAeQMdCh_CJCEw0MgIb-16" edge="1">
          <mxGeometry relative="1" as="geometry" />
        </mxCell>
        <mxCell id="btAeQMdCh_CJCEw0MgIb-132" value="geotag_5" style="rounded=0;whiteSpace=wrap;html=1;fillColor=#fff2cc;strokeColor=#d6b656;" parent="1" vertex="1">
          <mxGeometry x="569" y="730" width="240" height="30" as="geometry" />
        </mxCell>
        <mxCell id="btAeQMdCh_CJCEw0MgIb-135" value="return_l1_fact" style="rounded=0;whiteSpace=wrap;html=1;fillColor=#dae8fc;strokeColor=#6c8ebf;" parent="1" vertex="1">
          <mxGeometry x="1311" y="755" width="240" height="30" as="geometry" />
        </mxCell>
        <mxCell id="btAeQMdCh_CJCEw0MgIb-146" style="edgeStyle=orthogonalEdgeStyle;rounded=0;orthogonalLoop=1;jettySize=auto;html=1;" parent="1" source="btAeQMdCh_CJCEw0MgIb-136" edge="1">
          <mxGeometry relative="1" as="geometry">
            <mxPoint x="1200" y="980" as="targetPoint" />
            <Array as="points">
              <mxPoint x="1200" y="515" />
            </Array>
          </mxGeometry>
        </mxCell>
        <mxCell id="btAeQMdCh_CJCEw0MgIb-136" value="forward_unit_fact" style="rounded=0;whiteSpace=wrap;html=1;fillColor=#dae8fc;strokeColor=#6c8ebf;" parent="1" vertex="1">
          <mxGeometry x="1310" y="500" width="240" height="30" as="geometry" />
        </mxCell>
        <mxCell id="btAeQMdCh_CJCEw0MgIb-137" value="br_fulfillment_breach_funnel_raw_hive_fact" style="rounded=0;whiteSpace=wrap;html=1;fillColor=#dae8fc;strokeColor=#6c8ebf;" parent="1" vertex="1">
          <mxGeometry x="1311" y="625" width="240" height="30" as="geometry" />
        </mxCell>
        <mxCell id="btAeQMdCh_CJCEw0MgIb-138" value="address_hive_dim" style="rounded=0;whiteSpace=wrap;html=1;fillColor=#e1d5e7;strokeColor=#9673a6;" parent="1" vertex="1">
          <mxGeometry x="1311" y="685" width="240" height="30" as="geometry" />
        </mxCell>
        <mxCell id="btAeQMdCh_CJCEw0MgIb-139" value="fulfillment_unit_hive_fact" style="rounded=0;whiteSpace=wrap;html=1;fillColor=#dae8fc;strokeColor=#6c8ebf;" parent="1" vertex="1">
          <mxGeometry x="1310" y="900" width="241" height="30" as="geometry" />
        </mxCell>
        <mxCell id="btAeQMdCh_CJCEw0MgIb-140" value="fulfillment_tpl_shipment_intermediate_fact" style="rounded=0;whiteSpace=wrap;html=1;fillColor=#dae8fc;strokeColor=#6c8ebf;" parent="1" vertex="1">
          <mxGeometry x="1311" y="830" width="240" height="30" as="geometry" />
        </mxCell>
        <mxCell id="btAeQMdCh_CJCEw0MgIb-144" style="edgeStyle=orthogonalEdgeStyle;rounded=0;orthogonalLoop=1;jettySize=auto;html=1;entryX=1;entryY=0.5;entryDx=0;entryDy=0;" parent="1" source="btAeQMdCh_CJCEw0MgIb-141" target="btAeQMdCh_CJCEw0MgIb-78" edge="1">
          <mxGeometry relative="1" as="geometry" />
        </mxCell>
        <mxCell id="btAeQMdCh_CJCEw0MgIb-141" value="product_categorization_hive_dim" style="rounded=0;whiteSpace=wrap;html=1;fillColor=#e1d5e7;strokeColor=#9673a6;" parent="1" vertex="1">
          <mxGeometry x="1310" y="965" width="240" height="30" as="geometry" />
        </mxCell>
        <mxCell id="btAeQMdCh_CJCEw0MgIb-148" value="" style="line;strokeWidth=2;html=1;" parent="1" vertex="1">
          <mxGeometry x="1201" y="855" width="110" height="120" as="geometry" />
        </mxCell>
        <mxCell id="btAeQMdCh_CJCEw0MgIb-149" value="" style="line;strokeWidth=2;html=1;" parent="1" vertex="1">
          <mxGeometry x="1201" y="785" width="110" height="120" as="geometry" />
        </mxCell>
        <mxCell id="btAeQMdCh_CJCEw0MgIb-150" value="" style="line;strokeWidth=2;html=1;" parent="1" vertex="1">
          <mxGeometry x="1200" y="715" width="110" height="120" as="geometry" />
        </mxCell>
        <mxCell id="btAeQMdCh_CJCEw0MgIb-151" value="" style="line;strokeWidth=2;html=1;" parent="1" vertex="1">
          <mxGeometry x="1200" y="645" width="110" height="120" as="geometry" />
        </mxCell>
        <mxCell id="btAeQMdCh_CJCEw0MgIb-152" value="" style="line;strokeWidth=2;html=1;" parent="1" vertex="1">
          <mxGeometry x="1200" y="585" width="110" height="120" as="geometry" />
        </mxCell>
        <mxCell id="btAeQMdCh_CJCEw0MgIb-153" value="logistics_vendor_hive_dim" style="rounded=0;whiteSpace=wrap;html=1;fillColor=#e1d5e7;strokeColor=#9673a6;" parent="1" vertex="1">
          <mxGeometry x="1310" y="565" width="240" height="30" as="geometry" />
        </mxCell>
        <mxCell id="btAeQMdCh_CJCEw0MgIb-154" value="" style="line;strokeWidth=2;html=1;" parent="1" vertex="1">
          <mxGeometry x="1200" y="520" width="110" height="120" as="geometry" />
        </mxCell>
        <mxCell id="btAeQMdCh_CJCEw0MgIb-155" value="New_fact created already" style="text;html=1;strokeColor=#82b366;fillColor=#d5e8d4;align=center;verticalAlign=middle;whiteSpace=wrap;rounded=0;fontSize=12;" parent="1" vertex="1">
          <mxGeometry x="447.5" y="580" width="162.5" height="15" as="geometry" />
        </mxCell>
        <mxCell id="btAeQMdCh_CJCEw0MgIb-157" value="New_fact created already" style="text;html=1;strokeColor=#82b366;fillColor=#d5e8d4;align=center;verticalAlign=middle;whiteSpace=wrap;rounded=0;fontSize=12;" parent="1" vertex="1">
          <mxGeometry x="810" y="927.5" width="162.5" height="15" as="geometry" />
        </mxCell>
        <mxCell id="btAeQMdCh_CJCEw0MgIb-158" value="New_fact created already" style="text;html=1;strokeColor=#82b366;fillColor=#d5e8d4;align=center;verticalAlign=middle;whiteSpace=wrap;rounded=0;fontSize=12;" parent="1" vertex="1">
          <mxGeometry x="1451" y="1072.5" width="162.5" height="15" as="geometry" />
        </mxCell>
        <mxCell id="btAeQMdCh_CJCEw0MgIb-159" value="Refer mh er diagram" style="text;html=1;strokeColor=#b85450;fillColor=#f8cecc;align=center;verticalAlign=middle;whiteSpace=wrap;rounded=0;fontSize=12;" parent="1" vertex="1">
          <mxGeometry x="447.5" y="432.5" width="212.5" height="15" as="geometry" />
        </mxCell>
        <mxCell id="btAeQMdCh_CJCEw0MgIb-160" value="Refer mh er diagram" style="text;html=1;strokeColor=#b85450;fillColor=#f8cecc;align=center;verticalAlign=middle;whiteSpace=wrap;rounded=0;fontSize=12;" parent="1" vertex="1">
          <mxGeometry x="810" y="807.5" width="212.5" height="15" as="geometry" />
        </mxCell>
        <mxCell id="btAeQMdCh_CJCEw0MgIb-161" value="Refer mh er diagram" style="text;html=1;strokeColor=#b85450;fillColor=#f8cecc;align=center;verticalAlign=middle;whiteSpace=wrap;rounded=0;fontSize=12;" parent="1" vertex="1">
          <mxGeometry x="1551" y="837.5" width="212.5" height="15" as="geometry" />
        </mxCell>
        <mxCell id="btAeQMdCh_CJCEw0MgIb-162" value="Refer mh er diagram" style="text;html=1;strokeColor=#b85450;fillColor=#f8cecc;align=center;verticalAlign=middle;whiteSpace=wrap;rounded=0;fontSize=12;" parent="1" vertex="1">
          <mxGeometry x="1551" y="635" width="212.5" height="15" as="geometry" />
        </mxCell>
        <mxCell id="btAeQMdCh_CJCEw0MgIb-163" value="Refer mh er diagram" style="text;html=1;strokeColor=#b85450;fillColor=#f8cecc;align=center;verticalAlign=middle;whiteSpace=wrap;rounded=0;fontSize=12;" parent="1" vertex="1">
          <mxGeometry x="1551" y="762.5" width="212.5" height="15" as="geometry" />
        </mxCell>
        <mxCell id="btAeQMdCh_CJCEw0MgIb-165" value="Refer mh er diagram" style="text;html=1;strokeColor=#b85450;fillColor=#f8cecc;align=center;verticalAlign=middle;whiteSpace=wrap;rounded=0;fontSize=12;" parent="1" vertex="1">
          <mxGeometry x="1551" y="507.5" width="212.5" height="15" as="geometry" />
        </mxCell>
        <mxCell id="btAeQMdCh_CJCEw0MgIb-166" value="Refer mh er diagram" style="text;html=1;strokeColor=#b85450;fillColor=#f8cecc;align=center;verticalAlign=middle;whiteSpace=wrap;rounded=0;fontSize=12;" parent="1" vertex="1">
          <mxGeometry x="1551" y="907.5" width="212.5" height="15" as="geometry" />
        </mxCell>
        <mxCell id="btAeQMdCh_CJCEw0MgIb-167" value="return_l1_fact" style="rounded=0;whiteSpace=wrap;html=1;fillColor=#dae8fc;strokeColor=#6c8ebf;" parent="1" vertex="1">
          <mxGeometry x="851" y="1705" width="240" height="30" as="geometry" />
        </mxCell>
        <mxCell id="btAeQMdCh_CJCEw0MgIb-168" value="oms_ekl_returns_base_l1_hive_fact" style="rounded=0;whiteSpace=wrap;html=1;fillColor=#dae8fc;strokeColor=#6c8ebf;" parent="1" vertex="1">
          <mxGeometry x="850" y="1450" width="240" height="30" as="geometry" />
        </mxCell>
        <mxCell id="btAeQMdCh_CJCEw0MgIb-169" value="adm_partnercentre_fake_daylevel_l2_fact" style="rounded=0;whiteSpace=wrap;html=1;fillColor=#dae8fc;strokeColor=#6c8ebf;" parent="1" vertex="1">
          <mxGeometry x="851" y="1575" width="240" height="30" as="geometry" />
        </mxCell>
        <mxCell id="btAeQMdCh_CJCEw0MgIb-170" value="ekart_mdm_facility_mapper_dim" style="rounded=0;whiteSpace=wrap;html=1;fillColor=#e1d5e7;strokeColor=#9673a6;" parent="1" vertex="1">
          <mxGeometry x="851" y="1635" width="240" height="30" as="geometry" />
        </mxCell>
        <mxCell id="btAeQMdCh_CJCEw0MgIb-171" value="tasklist_shipment_attempt_l3_agg_fact" style="rounded=0;whiteSpace=wrap;html=1;fillColor=#dae8fc;strokeColor=#6c8ebf;" parent="1" vertex="1">
          <mxGeometry x="850" y="1850" width="241" height="30" as="geometry" />
        </mxCell>
        <mxCell id="btAeQMdCh_CJCEw0MgIb-172" value="fake_update_level_fact" style="rounded=0;whiteSpace=wrap;html=1;fillColor=#dae8fc;strokeColor=#6c8ebf;" parent="1" vertex="1">
          <mxGeometry x="851" y="1780" width="240" height="30" as="geometry" />
        </mxCell>
        <mxCell id="btAeQMdCh_CJCEw0MgIb-173" value="forward_unit_fact" style="rounded=0;whiteSpace=wrap;html=1;fillColor=#dae8fc;strokeColor=#6c8ebf;" parent="1" vertex="1">
          <mxGeometry x="850" y="1915" width="240" height="30" as="geometry" />
        </mxCell>
        <mxCell id="btAeQMdCh_CJCEw0MgIb-174" value="shipment_rfr_adherence_l1_fact" style="rounded=0;whiteSpace=wrap;html=1;fillColor=#dae8fc;strokeColor=#6c8ebf;" parent="1" vertex="1">
          <mxGeometry x="850" y="1515" width="240" height="30" as="geometry" />
        </mxCell>
        <mxCell id="btAeQMdCh_CJCEw0MgIb-177" value="br_fulfillment_breach_funnel_raw_hive_fact" style="rounded=0;whiteSpace=wrap;html=1;fillColor=#dae8fc;strokeColor=#6c8ebf;" parent="1" vertex="1">
          <mxGeometry x="850" y="1980" width="240" height="30" as="geometry" />
        </mxCell>
        <mxCell id="btAeQMdCh_CJCEw0MgIb-178" value="address_hive_dim" style="rounded=0;whiteSpace=wrap;html=1;fillColor=#e1d5e7;strokeColor=#9673a6;" parent="1" vertex="1">
          <mxGeometry x="849" y="2125" width="241" height="30" as="geometry" />
        </mxCell>
        <mxCell id="btAeQMdCh_CJCEw0MgIb-179" value="shipment_fl_l0_90_fact" style="rounded=0;whiteSpace=wrap;html=1;fillColor=#dae8fc;strokeColor=#6c8ebf;" parent="1" vertex="1">
          <mxGeometry x="850" y="2055" width="240" height="30" as="geometry" />
        </mxCell>
        <mxCell id="btAeQMdCh_CJCEw0MgIb-180" value="agent_hive_dim" style="rounded=0;whiteSpace=wrap;html=1;fillColor=#e1d5e7;strokeColor=#9673a6;" parent="1" vertex="1">
          <mxGeometry x="849" y="2190" width="240" height="30" as="geometry" />
        </mxCell>
        <mxCell id="btAeQMdCh_CJCEw0MgIb-183" style="edgeStyle=orthogonalEdgeStyle;rounded=0;orthogonalLoop=1;jettySize=auto;html=1;entryX=0.442;entryY=1.1;entryDx=0;entryDy=0;entryPerimeter=0;" parent="1" source="btAeQMdCh_CJCEw0MgIb-181" target="btAeQMdCh_CJCEw0MgIb-85" edge="1">
          <mxGeometry relative="1" as="geometry">
            <mxPoint x="670.090909090909" y="1248" as="targetPoint" />
          </mxGeometry>
        </mxCell>
        <mxCell id="btAeQMdCh_CJCEw0MgIb-181" value="first_mile_pickup_request_hive_fact" style="rounded=0;whiteSpace=wrap;html=1;fillColor=#dae8fc;strokeColor=#6c8ebf;" parent="1" vertex="1">
          <mxGeometry x="849" y="2250" width="240" height="30" as="geometry" />
        </mxCell>
        <mxCell id="btAeQMdCh_CJCEw0MgIb-192" value="" style="line;strokeWidth=2;html=1;" parent="1" vertex="1">
          <mxGeometry x="670" y="1405" width="181" height="120" as="geometry" />
        </mxCell>
        <mxCell id="btAeQMdCh_CJCEw0MgIb-193" value="" style="line;strokeWidth=2;html=1;" parent="1" vertex="1">
          <mxGeometry x="668" y="1470" width="181" height="120" as="geometry" />
        </mxCell>
        <mxCell id="btAeQMdCh_CJCEw0MgIb-194" value="" style="line;strokeWidth=2;html=1;" parent="1" vertex="1">
          <mxGeometry x="670" y="1735" width="181" height="120" as="geometry" />
        </mxCell>
        <mxCell id="btAeQMdCh_CJCEw0MgIb-195" value="" style="line;strokeWidth=2;html=1;" parent="1" vertex="1">
          <mxGeometry x="670" y="1530" width="181" height="120" as="geometry" />
        </mxCell>
        <mxCell id="btAeQMdCh_CJCEw0MgIb-196" value="" style="line;strokeWidth=2;html=1;" parent="1" vertex="1">
          <mxGeometry x="668" y="1600" width="181" height="120" as="geometry" />
        </mxCell>
        <mxCell id="btAeQMdCh_CJCEw0MgIb-197" value="" style="line;strokeWidth=2;html=1;" parent="1" vertex="1">
          <mxGeometry x="669" y="1660" width="181" height="120" as="geometry" />
        </mxCell>
        <mxCell id="btAeQMdCh_CJCEw0MgIb-198" value="" style="line;strokeWidth=2;html=1;" parent="1" vertex="1">
          <mxGeometry x="668" y="1805" width="181" height="120" as="geometry" />
        </mxCell>
        <mxCell id="btAeQMdCh_CJCEw0MgIb-202" value="" style="line;strokeWidth=2;html=1;" parent="1" vertex="1">
          <mxGeometry x="670" y="1870" width="181" height="120" as="geometry" />
        </mxCell>
        <mxCell id="btAeQMdCh_CJCEw0MgIb-203" value="" style="line;strokeWidth=2;html=1;" parent="1" vertex="1">
          <mxGeometry x="670" y="2010" width="181" height="120" as="geometry" />
        </mxCell>
        <mxCell id="btAeQMdCh_CJCEw0MgIb-204" value="" style="line;strokeWidth=2;html=1;" parent="1" vertex="1">
          <mxGeometry x="668" y="1935" width="181" height="120" as="geometry" />
        </mxCell>
        <mxCell id="btAeQMdCh_CJCEw0MgIb-205" value="" style="line;strokeWidth=2;html=1;" parent="1" vertex="1">
          <mxGeometry x="668" y="2080" width="181" height="120" as="geometry" />
        </mxCell>
        <mxCell id="btAeQMdCh_CJCEw0MgIb-206" value="" style="line;strokeWidth=2;html=1;" parent="1" vertex="1">
          <mxGeometry x="668" y="2145" width="181" height="120" as="geometry" />
        </mxCell>
        <mxCell id="btAeQMdCh_CJCEw0MgIb-207" value="New_fact created already" style="text;html=1;strokeColor=#82b366;fillColor=#d5e8d4;align=center;verticalAlign=middle;whiteSpace=wrap;rounded=0;fontSize=12;" parent="1" vertex="1">
          <mxGeometry x="1091" y="2062.5" width="162.5" height="15" as="geometry" />
        </mxCell>
        <mxCell id="btAeQMdCh_CJCEw0MgIb-208" value="New_fact created already" style="text;html=1;strokeColor=#82b366;fillColor=#d5e8d4;align=center;verticalAlign=middle;whiteSpace=wrap;rounded=0;fontSize=12;" parent="1" vertex="1">
          <mxGeometry x="1091" y="1857.5" width="162.5" height="15" as="geometry" />
        </mxCell>
        <mxCell id="btAeQMdCh_CJCEw0MgIb-209" value="New_fact created already" style="text;html=1;strokeColor=#82b366;fillColor=#d5e8d4;align=center;verticalAlign=middle;whiteSpace=wrap;rounded=0;fontSize=12;" parent="1" vertex="1">
          <mxGeometry x="1091" y="1787.5" width="162.5" height="15" as="geometry" />
        </mxCell>
        <mxCell id="btAeQMdCh_CJCEw0MgIb-210" value="New_fact created already" style="text;html=1;strokeColor=#82b366;fillColor=#d5e8d4;align=center;verticalAlign=middle;whiteSpace=wrap;rounded=0;fontSize=12;" parent="1" vertex="1">
          <mxGeometry x="1091" y="2257.5" width="162.5" height="15" as="geometry" />
        </mxCell>
        <mxCell id="btAeQMdCh_CJCEw0MgIb-211" value="Refer mh er diagram" style="text;html=1;strokeColor=#b85450;fillColor=#f8cecc;align=center;verticalAlign=middle;whiteSpace=wrap;rounded=0;fontSize=12;" parent="1" vertex="1">
          <mxGeometry x="1091" y="1712.5" width="212.5" height="15" as="geometry" />
        </mxCell>
        <mxCell id="btAeQMdCh_CJCEw0MgIb-212" value="Refer mh er diagram" style="text;html=1;strokeColor=#b85450;fillColor=#f8cecc;align=center;verticalAlign=middle;whiteSpace=wrap;rounded=0;fontSize=12;" parent="1" vertex="1">
          <mxGeometry x="1091" y="1925" width="212.5" height="15" as="geometry" />
        </mxCell>
        <mxCell id="btAeQMdCh_CJCEw0MgIb-213" value="Refer mh er diagram" style="text;html=1;strokeColor=#b85450;fillColor=#f8cecc;align=center;verticalAlign=middle;whiteSpace=wrap;rounded=0;fontSize=12;" parent="1" vertex="1">
          <mxGeometry x="1091" y="1987.5" width="212.5" height="15" as="geometry" />
        </mxCell>
        <mxCell id="btAeQMdCh_CJCEw0MgIb-214" value="Duplicate" style="text;html=1;strokeColor=#b85450;fillColor=#f8cecc;align=center;verticalAlign=middle;whiteSpace=wrap;rounded=0;fontSize=12;" parent="1" vertex="1">
          <mxGeometry x="1091" y="1522.5" width="80" height="15" as="geometry" />
        </mxCell>
        <mxCell id="btAeQMdCh_CJCEw0MgIb-221" style="edgeStyle=orthogonalEdgeStyle;rounded=0;orthogonalLoop=1;jettySize=auto;html=1;entryX=0.75;entryY=0;entryDx=0;entryDy=0;" parent="1" source="btAeQMdCh_CJCEw0MgIb-217" target="btAeQMdCh_CJCEw0MgIb-168" edge="1">
          <mxGeometry relative="1" as="geometry" />
        </mxCell>
        <mxCell id="btAeQMdCh_CJCEw0MgIb-217" value="shipment_hive_90_fact" style="rounded=0;whiteSpace=wrap;html=1;fillColor=#dae8fc;strokeColor=#6c8ebf;" parent="1" vertex="1">
          <mxGeometry x="1620" y="1380" width="240" height="30" as="geometry" />
        </mxCell>
        <mxCell id="btAeQMdCh_CJCEw0MgIb-218" value="logistics_geo_hive_dim" style="rounded=0;whiteSpace=wrap;html=1;fillColor=#e1d5e7;strokeColor=#9673a6;" parent="1" vertex="1">
          <mxGeometry x="1621" y="1505" width="240" height="30" as="geometry" />
        </mxCell>
        <mxCell id="btAeQMdCh_CJCEw0MgIb-223" style="edgeStyle=orthogonalEdgeStyle;rounded=0;orthogonalLoop=1;jettySize=auto;html=1;" parent="1" source="btAeQMdCh_CJCEw0MgIb-219" edge="1">
          <mxGeometry relative="1" as="geometry">
            <mxPoint x="1470" y="1400" as="targetPoint" />
          </mxGeometry>
        </mxCell>
        <mxCell id="btAeQMdCh_CJCEw0MgIb-219" value="la_shipment_l0_fact" style="rounded=0;whiteSpace=wrap;html=1;fillColor=#dae8fc;strokeColor=#6c8ebf;" parent="1" vertex="1">
          <mxGeometry x="1621" y="1565" width="240" height="30" as="geometry" />
        </mxCell>
        <mxCell id="btAeQMdCh_CJCEw0MgIb-220" value="ekl_facility_hive_dim" style="rounded=0;whiteSpace=wrap;html=1;fillColor=#e1d5e7;strokeColor=#9673a6;" parent="1" vertex="1">
          <mxGeometry x="1620" y="1445" width="240" height="30" as="geometry" />
        </mxCell>
        <mxCell id="btAeQMdCh_CJCEw0MgIb-224" value="" style="line;strokeWidth=2;html=1;" parent="1" vertex="1">
          <mxGeometry x="1470" y="1460" width="152.75" height="120" as="geometry" />
        </mxCell>
        <mxCell id="btAeQMdCh_CJCEw0MgIb-225" value="" style="line;strokeWidth=2;html=1;" parent="1" vertex="1">
          <mxGeometry x="1468.25" y="1400" width="152.75" height="120" as="geometry" />
        </mxCell>
        <mxCell id="btAeQMdCh_CJCEw0MgIb-226" value="Refer mh er diagram" style="text;html=1;strokeColor=#b85450;fillColor=#f8cecc;align=center;verticalAlign=middle;whiteSpace=wrap;rounded=0;fontSize=12;" parent="1" vertex="1">
          <mxGeometry x="1861" y="1385" width="212.5" height="15" as="geometry" />
        </mxCell>
        <mxCell id="btAeQMdCh_CJCEw0MgIb-227" value="Suspended" style="text;html=1;strokeColor=#b85450;fillColor=#f8cecc;align=center;verticalAlign=middle;whiteSpace=wrap;rounded=0;fontSize=12;" parent="1" vertex="1">
          <mxGeometry x="1091" y="1582.5" width="114" height="15" as="geometry" />
        </mxCell>
      </root>
    </mxGraphModel>
  </diagram>
</mxfile>
